<svg width="11" height="11" viewBox="0 0 11 11" fill="none" xmlns="http://www.w3.org/2000/svg">
<path d="M5.5 0C4.04131 0 2.64236 0.579463 1.61091 1.61091C0.579463 2.64236 0 4.04131 0 5.5C0 6.95869 0.579463 8.35764 1.61091 9.38909C2.64236 10.4205 4.04131 11 5.5 11C6.95869 11 8.35764 10.4205 9.38909 9.38909C10.4205 8.35764 11 6.95869 11 5.5C11 4.04131 10.4205 2.64236 9.38909 1.61091C8.35764 0.579463 6.95869 0 5.5 0ZM3.4606 5.3394C3.40946 5.28826 3.3689 5.22756 3.34122 5.16074C3.31355 5.09393 3.29931 5.02232 3.29931 4.95C3.29931 4.87768 3.31355 4.80607 3.34122 4.73926C3.3689 4.67244 3.40946 4.61174 3.4606 4.5606C3.51174 4.50946 3.57244 4.4689 3.63926 4.44122C3.70607 4.41355 3.77768 4.3993 3.85 4.3993C3.92232 4.3993 3.99393 4.41355 4.06074 4.44122C4.12756 4.4689 4.18826 4.50946 4.2394 4.5606L5.5 5.8223L6.7606 4.5606C6.81174 4.50946 6.87244 4.4689 6.93926 4.44122C7.00607 4.41355 7.07768 4.3993 7.15 4.3993C7.22232 4.3993 7.29393 4.41355 7.36074 4.44122C7.42756 4.4689 7.48826 4.50946 7.5394 4.5606C7.59054 4.61174 7.6311 4.67244 7.65878 4.73926C7.68645 4.80607 7.70069 4.87768 7.70069 4.95C7.70069 5.02232 7.68645 5.09393 7.65878 5.16074C7.6311 5.22756 7.59054 5.28826 7.5394 5.3394L5.8894 6.9894C5.83831 7.04062 5.77762 7.08126 5.7108 7.10898C5.64398 7.13671 5.57234 7.15098 5.5 7.15098C5.42766 7.15098 5.35602 7.13671 5.2892 7.10898C5.22238 7.08126 5.16169 7.04062 5.1106 6.9894L3.4606 5.3394Z" fill="white"/>
</svg>
