<svg width="27" height="27" viewBox="0 0 27 27" fill="none" xmlns="http://www.w3.org/2000/svg">
<path d="M16.2778 9.33333V17.6667M10.7222 9.33333V17.6667M13.5 26C11.8585 26 10.233 25.6767 8.71646 25.0485C7.19989 24.4203 5.8219 23.4996 4.66117 22.3388C3.50043 21.1781 2.57969 19.8001 1.95151 18.2835C1.32332 16.767 1 15.1415 1 13.5C1 11.8585 1.32332 10.233 1.95151 8.71646C2.57969 7.19989 3.50043 5.8219 4.66117 4.66116C5.8219 3.50043 7.19989 2.57969 8.71646 1.95151C10.233 1.32332 11.8585 1 13.5 1C16.8152 1 19.9946 2.31696 22.3388 4.66116C24.683 7.00537 26 10.1848 26 13.5C26 16.8152 24.683 19.9946 22.3388 22.3388C19.9946 24.683 16.8152 26 13.5 26Z" stroke="white" stroke-width="2" stroke-linecap="round" stroke-linejoin="round"/>
</svg>
