<svg width="23" height="23" viewBox="0 0 23 23" fill="none" xmlns="http://www.w3.org/2000/svg">
<path d="M22.7754 4.46973L21.7197 5.52539C21.57 5.67513 21.3903 5.75 21.1807 5.75C20.971 5.75 20.7988 5.67513 20.6641 5.52539L19.8555 4.73926L18.6875 5.90723C19.5859 6.83561 20.286 7.90625 20.7876 9.11914C21.2892 10.332 21.54 11.6048 21.54 12.9375C21.54 14.3001 21.278 15.6029 20.7539 16.8457C20.2298 18.0885 19.5186 19.1592 18.6201 20.0576C17.7217 20.9561 16.651 21.6711 15.4082 22.2026C14.1654 22.7342 12.8626 23 11.5 23C10.1374 23 8.83464 22.7342 7.5918 22.2026C6.34896 21.6711 5.27832 20.9561 4.37988 20.0576C3.48145 19.1592 2.76644 18.0885 2.23486 16.8457C1.70329 15.6029 1.4375 14.3001 1.4375 12.9375C1.4375 11.6048 1.69206 10.332 2.20117 9.11914C2.71029 7.90625 3.41406 6.83561 4.3125 5.90723L3.14453 4.73926L2.33594 5.52539C2.20117 5.67513 2.02897 5.75 1.81934 5.75C1.6097 5.75 1.43001 5.67513 1.28027 5.52539L0.224609 4.46973C0.0748698 4.31999 0 4.1403 0 3.93066C0 3.72103 0.0748698 3.54883 0.224609 3.41406L3.41406 0.224609C3.54883 0.0748698 3.72103 0 3.93066 0C4.1403 0 4.31999 0.0748698 4.46973 0.224609L5.52539 1.28027C5.67513 1.43001 5.75 1.6097 5.75 1.81934C5.75 2.02897 5.67513 2.20117 5.52539 2.33594L4.73926 3.14453L6.06445 4.49219C7.29232 3.69857 8.63249 3.19694 10.085 2.9873V2.89746H9.34375C9.14909 2.89746 8.98063 2.82633 8.83838 2.68408C8.69613 2.54183 8.625 2.37337 8.625 2.17871V0.741211C8.625 0.531576 8.69613 0.359375 8.83838 0.224609C8.98063 0.0898438 9.14909 0.0224609 9.34375 0.0224609H13.6562C13.8509 0.0224609 14.0194 0.0898438 14.1616 0.224609C14.3039 0.359375 14.375 0.531576 14.375 0.741211V2.17871C14.375 2.37337 14.3039 2.54183 14.1616 2.68408C14.0194 2.82633 13.8509 2.89746 13.6562 2.89746H12.9375V2.9873C14.375 3.19694 15.7077 3.69857 16.9355 4.49219L18.2607 3.14453L17.4746 2.33594C17.3249 2.20117 17.25 2.02897 17.25 1.81934C17.25 1.6097 17.3249 1.43001 17.4746 1.28027L18.5303 0.224609C18.68 0.0748698 18.8597 0 19.0693 0C19.279 0 19.4512 0.0748698 19.5859 0.224609L22.7754 3.41406C22.9251 3.54883 23 3.72103 23 3.93066C23 4.1403 22.9251 4.31999 22.7754 4.46973ZM11.5 5.75C10.1973 5.75 8.99561 6.07194 7.89502 6.71582C6.79443 7.3597 5.9222 8.23193 5.27832 9.33252C4.63444 10.4331 4.3125 11.6348 4.3125 12.9375C4.3125 14.2402 4.63444 15.4419 5.27832 16.5425C5.9222 17.6431 6.79443 18.5153 7.89502 19.1592C8.99561 19.8031 10.1973 20.125 11.5 20.125C12.8027 20.125 14.0044 19.8031 15.105 19.1592C16.2056 18.5153 17.0778 17.6431 17.7217 16.5425C18.3656 15.4419 18.6875 14.2402 18.6875 12.9375C18.6875 11.6348 18.3656 10.4331 17.7217 9.33252C17.0778 8.23193 16.2056 7.3597 15.105 6.71582C14.0044 6.07194 12.8027 5.75 11.5 5.75ZM12.9375 12.9375C12.9375 13.3418 12.799 13.6825 12.522 13.9595C12.245 14.2365 11.9043 14.375 11.5 14.375C11.1107 14.375 10.7738 14.2365 10.4893 13.9595C10.2048 13.6825 10.0625 13.3455 10.0625 12.9487C10.0625 12.5519 10.2048 12.2113 10.4893 11.9268C10.7738 11.6423 11.1107 11.5 11.5 11.5C11.5449 11.5 11.6198 11.5075 11.7246 11.5225L15.0938 8.64746V8.625H15.8125V9.34375L12.915 12.7354C12.93 12.8402 12.9375 12.9076 12.9375 12.9375Z" fill="#134E4A"/>
</svg>
