<svg width="19" height="22" viewBox="0 0 19 22" fill="none" xmlns="http://www.w3.org/2000/svg">
<path d="M14.9353 1.19574L15.3394 2.39047C16.9105 2.96873 17.9818 3.83864 17.9818 5.03136C17.9818 7.44999 13.5845 8.54919 9.50051 8.54919C5.41545 8.54919 1.02024 7.44999 1.02024 5.03136C1.02024 3.75215 2.25474 2.84504 4.01772 2.26979L4.41357 1.09819C1.92112 1.74886 0 2.98583 0 5.03035V7.30719C0 8.53812 0.698867 9.4744 1.79563 10.1683L2.19863 19.4858C2.19863 20.8736 5.5389 22 9.65865 22C13.7784 22 17.1197 20.8736 17.1197 19.4858L17.5329 9.93902C18.4358 9.27126 19 8.4104 19 7.30719V5.02935C19.002 3.08137 17.2554 1.86954 14.9353 1.19574ZM5.00532 19.6769C4.51968 19.3893 3.96263 18.8261 3.81571 18.4329C2.78833 15.6572 3.07093 13.485 3.27498 10.8803C4.03813 11.1619 4.88697 11.3751 5.77458 11.527C5.55523 14.2 5.33588 16.4779 5.77866 19.3993C5.846 19.8298 5.48993 19.9625 5.00634 19.6779L5.00532 19.6769ZM11.2553 19.8801C11.2349 20.3266 10.5493 20.7399 9.7066 20.7399C8.86184 20.7399 8.17827 20.3246 8.15889 19.877C8.03034 16.864 8.12624 14.5249 8.22827 11.7915C8.65473 11.8146 9.08017 11.8297 9.49949 11.8297C10.0525 11.8297 10.6177 11.8096 11.1829 11.7693C11.2849 14.5148 11.3829 16.858 11.2543 19.879L11.2553 19.8801ZM15.5975 18.4339C15.4516 18.8281 14.8935 19.3893 14.4089 19.6759C13.9263 19.9615 13.5764 19.8268 13.6407 19.3983C14.0865 16.4517 13.859 14.1608 13.6356 11.4576C14.5334 11.2826 15.3781 11.0382 16.125 10.7234C16.331 13.3985 16.6453 15.6029 15.5985 18.4349L15.5975 18.4339ZM5.25528 4.97906C5.51249 5.06267 5.79281 5.04268 6.03514 4.92344C6.27746 4.80419 6.46215 4.59537 6.54894 4.34248H6.5469L7.33249 2.01234H11.9848L12.7724 4.34147C12.8588 4.59396 13.043 4.80251 13.2848 4.92159C13.5266 5.04067 13.8064 5.06061 14.063 4.97705C14.1903 4.93545 14.308 4.86953 14.4094 4.78306C14.5108 4.69659 14.5939 4.59127 14.654 4.47312C14.714 4.35497 14.7499 4.22631 14.7595 4.09449C14.7691 3.96267 14.7522 3.83028 14.7099 3.70488L13.6876 0.687877C13.6201 0.488193 13.4908 0.314406 13.3178 0.191001C13.1449 0.0675961 12.937 0.000791687 12.7235 0H6.59996C6.16329 0 5.77152 0.276559 5.63277 0.686872L4.61252 3.70388C4.43398 4.23085 4.72271 4.80006 5.25528 4.97705V4.97906Z" fill="white"/>
</svg>
